# xmcd
#
# Track frame offsets: 
#        182
#        14365
#        27257
#        39885
#        52017
#        66815
#        80745
#        97935
#        113257
#        129260
#        144380
#        157937
#        176352
#        192905
#
# Disc length: 2717 seconds
#
# Revision: 1
# Processed by: cddbd v1.5.1PL0 Copyright (c) Steve Scherf et al.
# Submitted via: ExactAudioCopy v0.95a3
#
DISCID=a40a9b0e
DTITLE=Various Artist - Acervo Sertanejo (Especial)
DYEAR=1994
DGENRE=Sertanejo
TTITLE0=Belmonte and Amaraí  - Saudade Da Minha Terra
TTITLE1=Sérgio Reis - João De Barro
TTITLE2=Torres and Florêncio - Pingo D'água
TTITLE3=Duo Ciriema - Não Beba Mais Não
TTITLE4=Palmeira and Biá - Boneca Cobiçada
TTITLE5=Mário Zan -Chalana
TTITLE6=Pedro Bento and Zé Da Estrada - Mágoa De Boiadeiro
TTITLE7=Luizinho and Limeira - O Menino Da Porteira
TTITLE8=Cascatinha and Inhana - Flor Do Cafezal
TTITLE9=Tonico and Tinoco - Viola Cabloca
TTITLE10=Irmãs Galvão - Não Me Abandones
TTITLE11=Renato Teixeira - Romaria
TTITLE12=Tavares and Zé Negrão - Rio De Lágrimas
TTITLE13=Inezita Barroso - Marvada Pinga
EXTD=
EXTT0=
EXTT1=
EXTT2=
EXTT3=
EXTT4=
EXTT5=
EXTT6=
EXTT7=
EXTT8=
EXTT9=
EXTT10=
EXTT11=
EXTT12=
EXTT13=
PLAYORDER=
